<svg viewBox="0 0 900 430" role="img" aria-label="A travel desk with a route map, coral wagon, calculator, lake and mountains" xmlns="http://www.w3.org/2000/svg"><rect width="900" height="430" rx="28" fill="#e4e9da"/><path d="M560 0q-80 150 45 243t-35 187h330V0Z" fill="#a4ccc6"/><circle cx="742" cy="77" r="47" fill="#e9b865"/><path d="m395 155 92-111 103 127 61-88 106 126" fill="#9eb9aa"/><path d="m463 75 24-31 27 34-21-8-15 9Z" fill="#f8f0df"/><path d="M0 368q287-179 466-114t285 146" fill="none" stroke="#faf1de" stroke-width="73"/><path d="M0 368q287-179 466-114t285 146" fill="none" stroke="#287b79" stroke-width="3" stroke-dasharray="15 15"/><g transform="translate(52 37) rotate(-8 140 115)"><rect width="290" height="203" rx="8" fill="#fffaeb" stroke="#213c49" stroke-width="2"/><path d="m15 37 89-17 77 44 94-22v138l-91 3-85-38-84 31Z" fill="#d4e6d4"/><path d="m37 112 73-50 73 64 66-33" fill="none" stroke="#d36c51" stroke-width="5" stroke-dasharray="8 6"/><circle cx="38" cy="112" r="8" fill="#287b79"/><circle cx="248" cy="94" r="8" fill="#287b79"/><path d="M104 20v124m78-82v120" stroke="#9fbdad" stroke-width="2"/></g><g transform="translate(332 199) scale(1.18)"><ellipse cx="125" cy="153" rx="107" ry="11" fill="#213c49" opacity=".12"/><path d="M25 131V99q0-12 17-15l24-38h104l28 43q25 4 27 22v20Z" fill="#d36c51" stroke="#213c49" stroke-width="3"/><path d="M75 55h43v32H55ZM128 55h35l21 32h-56Z" fill="#e7f2ec" stroke="#213c49" stroke-width="3"/><path d="M24 119h206M123 54v75" fill="none" stroke="#213c49" stroke-width="2"/><rect x="31" y="98" width="16" height="10" rx="3" fill="#fff3d9"/><rect x="205" y="98" width="17" height="10" rx="3" fill="#fff3d9"/><path d="M135 96h12" stroke="#213c49" stroke-width="3"/><circle cx="65" cy="135" r="23" fill="#213c49"/><circle cx="65" cy="135" r="11" fill="#f3e9d6"/><circle cx="193" cy="135" r="23" fill="#213c49"/><circle cx="193" cy="135" r="11" fill="#f3e9d6"/></g><g transform="translate(715 235) rotate(10)"><rect width="100" height="131" rx="8" fill="#d36c51" stroke="#213c49" stroke-width="3"/><rect x="13" y="14" width="74" height="24" rx="3" fill="#e4ead7"/><rect x="16" y="51" width="15" height="14" rx="3" fill="#fff0d7"/><rect x="41" y="51" width="15" height="14" rx="3" fill="#fff0d7"/><rect x="66" y="51" width="15" height="14" rx="3" fill="#fff0d7"/><rect x="16" y="74" width="15" height="14" rx="3" fill="#fff0d7"/><rect x="41" y="74" width="15" height="14" rx="3" fill="#fff0d7"/><rect x="66" y="74" width="15" height="14" rx="3" fill="#fff0d7"/><rect x="16" y="97" width="15" height="14" rx="3" fill="#fff0d7"/><rect x="41" y="97" width="15" height="14" rx="3" fill="#fff0d7"/><rect x="66" y="97" width="15" height="14" rx="3" fill="#fff0d7"/></g><path d="m78 314 75 14-6 33-75-14Z" fill="#e9b865" stroke="#213c49" stroke-width="3"/></svg>